<svg width="60.000000" height="60.000000" viewBox="0 0 60 60" fill="none" xmlns="http://www.w3.org/2000/svg" xmlns:xlink="http://www.w3.org/1999/xlink">
	<desc>
			Created with Pixso.
	</desc>
	<defs/>
	<circle id="Ellipse 70" cx="30.000000" cy="30.000000" r="30.000000" fill="#FAF5F2" fill-opacity="1.000000"/>
	<rect id="icon" width="40.000000" height="40.000000" transform="translate(10.000000 10.000000)" fill="#FFFFFF" fill-opacity="0"/>
	<path id="Vector" d="M35.9789 24.7497L28.1052 33.7178L24.1096 29.6554C23.8363 29.3775 23.3937 29.3775 23.1202 29.6554C22.8469 29.9333 22.8469 30.3835 23.1202 30.6614L27.6393 35.2565C27.7703 35.3903 27.9485 35.4647 28.1342 35.4647C28.1406 35.4647 28.1472 35.4647 28.1537 35.4642C28.3463 35.4586 28.5278 35.3732 28.6561 35.2271L37.0232 25.6973C37.2806 25.4042 37.2555 24.9546 36.9673 24.6927C36.678 24.4314 36.2368 24.457 35.9789 24.7497Z" fill="#F79489" fill-opacity="1.000000" fill-rule="nonzero"/>
	<path id="Vector" d="M49.9777 29.9988C49.991 29.9451 50 29.8896 50 29.8317C50 27.9493 48.0309 26.9766 46.2931 26.1178C45.0596 25.5085 43.7847 24.8781 43.4452 24.0838C43.0996 23.2731 43.5876 21.9519 44.0587 20.6736C44.7158 18.8925 45.3948 17.0511 44.1417 15.8095C42.913 14.591 41.1162 15.0035 39.3779 15.4042C38.1615 15.6838 36.9028 15.9724 36.0647 15.6212C35.2467 15.278 34.5668 14.2139 33.9091 13.1837C32.9552 11.6917 31.875 10 30 10C28.1216 10 27.0619 11.7284 26.1274 13.2539C25.4789 14.3127 24.808 15.407 23.9907 15.7498C23.1556 16.1005 21.8835 15.7827 20.6538 15.4762C18.9017 15.0402 17.0903 14.5873 15.8586 15.81C14.6143 17.0436 15.2172 18.8944 15.8013 20.6849C16.2181 21.9623 16.6488 23.2834 16.3003 24.1013C15.9603 24.8988 14.7419 25.5236 13.563 26.1282C11.8931 26.9841 10 27.9545 10 29.8326C10 29.891 10.0095 29.947 10.0228 30.0012C10.0095 30.0549 10.0005 30.1104 10.0005 30.1683C10.0005 32.0464 11.8936 33.0168 13.564 33.8728C14.7419 34.4769 15.9608 35.1016 16.3008 35.8992C16.6493 36.717 16.2186 38.0382 15.8018 39.316C15.2181 41.1061 14.6147 42.9564 15.8586 44.1905C17.0913 45.4132 18.9027 44.9617 20.6543 44.5243C21.8845 44.2183 23.157 43.9014 23.9917 44.2517C24.8083 44.594 25.4794 45.6882 26.1279 46.7466C27.0629 48.2716 28.1221 50 30.0005 50C31.8755 50 32.9562 48.3083 33.9095 46.8163C34.5676 45.7861 35.2476 44.722 36.0643 44.3788C36.9056 44.0266 38.162 44.3157 39.3779 44.5958C41.1154 44.9956 42.913 45.4099 44.1409 44.1909C45.3953 42.9489 44.7158 41.1071 44.0587 39.3264C43.5872 38.0481 43.0996 36.7269 43.4447 35.9171C43.7847 35.1224 45.0596 34.4919 46.2931 33.8827C48.0305 33.0244 50 32.0511 50 30.1688C50.0005 30.109 49.991 30.053 49.9777 29.9988ZM45.6583 32.6166C44.1935 33.3403 42.6788 34.0889 42.1333 35.3653C41.5697 36.6884 42.1552 38.2755 42.7212 39.8099C43.2472 41.237 43.7449 42.5859 43.1338 43.1904C42.4647 43.8552 41.121 43.5459 39.7 43.2192C38.2622 42.8886 36.7755 42.5463 35.5096 43.077C34.2823 43.592 33.4813 44.8463 32.7064 46.0592C31.876 47.3586 31.0916 48.5861 30.0005 48.5861C28.9231 48.5861 28.1567 47.3356 27.3448 46.0116C26.579 44.7616 25.7865 43.4687 24.5463 42.9493C23.2715 42.4136 21.7649 42.7893 20.3063 43.1533C18.8771 43.5087 17.5272 43.8467 16.8657 43.1904C16.2375 42.568 16.684 41.1989 17.1564 39.7491C17.6534 38.226 18.1667 36.6506 17.6122 35.3479C17.0718 34.0804 15.6208 33.3365 14.2178 32.6166C12.7815 31.8807 11.4244 31.1853 11.4244 30.1669C11.4244 30.1085 11.4149 30.0525 11.4016 29.9979C11.4149 29.9442 11.424 29.8887 11.424 29.8307C11.424 28.8123 12.7805 28.1169 14.2168 27.381C15.6204 26.6616 17.0718 25.9177 17.6117 24.6493C18.1663 23.347 17.653 21.7721 17.1559 20.2485C16.6835 18.7988 16.2367 17.4296 16.8657 16.8068C17.5258 16.1509 18.8756 16.488 20.3058 16.8444C21.7634 17.2074 23.27 17.5845 24.5454 17.0488C25.7855 16.5289 26.578 15.2361 27.3448 13.986C28.1562 12.6616 28.9226 11.4111 30 11.4111C31.0911 11.4111 31.8755 12.6385 32.7054 13.9385C33.4808 15.1513 34.2819 16.4056 35.5096 16.9211C36.7755 17.4518 38.2622 17.1095 39.7 16.7785C41.121 16.4517 42.4642 16.1424 43.1343 16.8077C43.7444 17.4117 43.2467 18.7602 42.7207 20.1877C42.1547 21.7227 41.5692 23.3098 42.1333 24.6333C42.678 25.9092 44.193 26.6578 45.6578 27.3815C47.1582 28.1226 48.5756 28.8232 48.5756 29.8307C48.5756 29.8891 48.5851 29.9451 48.5984 29.9993C48.5851 30.053 48.576 30.1085 48.576 30.1664C48.576 31.1754 47.1587 31.8755 45.6583 32.6166Z" fill="#F79489" fill-opacity="1.000000" fill-rule="nonzero"/>
</svg>
