<svg width="60.000000" height="60.000000" viewBox="0 0 60 60" fill="none" xmlns="http://www.w3.org/2000/svg" xmlns:xlink="http://www.w3.org/1999/xlink">
	<desc>
			Created with Pixso.
	</desc>
	<defs/>
	<circle id="Ellipse 73" cx="30.000000" cy="30.000000" r="30.000000" fill="#FAF5F2" fill-opacity="1.000000"/>
	<rect id="icon" width="34.000000" height="40.000000" transform="translate(13.000000 10.000000)" fill="#FFFFFF" fill-opacity="0"/>
	<path id="Vector" d="M44.8108 31.9041L35.3909 30.5134L31.1787 21.8408C31.0745 21.6256 30.8589 21.4894 30.6221 21.4894C30.3855 21.4894 30.1699 21.6256 30.0657 21.8408L25.8538 30.5134L16.4338 31.9041C16.2004 31.9385 16.0061 32.105 15.9329 32.3333C15.8596 32.5616 15.9209 32.8126 16.0901 32.9799L22.9055 39.7303L21.2969 49.2626C21.2568 49.4993 21.3528 49.7385 21.5439 49.8798C21.7356 50.0206 21.9888 50.0391 22.1975 49.9277L30.6218 45.4268L39.0471 49.9277C39.1382 49.9761 39.2371 50 39.3359 50C39.4646 50 39.5923 49.9592 39.7007 49.8798C39.8918 49.7385 39.9875 49.4993 39.9478 49.2626L38.3376 39.7303L45.1538 32.9799C45.323 32.8126 45.3838 32.5616 45.311 32.3333C45.2388 32.105 45.0442 31.9385 44.8108 31.9041ZM37.2385 39.0585C37.0923 39.2036 37.0256 39.4121 37.0598 39.6168L38.5125 48.2162L30.9114 44.1559C30.7302 44.0597 30.5146 44.0597 30.3337 44.1559L22.7339 48.2162L24.1848 39.6168C24.2192 39.4121 24.1526 39.2036 24.0061 39.0585L17.8579 32.969L26.3562 31.7145C26.5581 31.6846 26.7329 31.5555 26.8232 31.3698L30.623 23.546L34.4231 31.3698C34.5134 31.5555 34.6885 31.6846 34.8904 31.7145L43.3884 32.969L37.2385 39.0585Z" fill="#F79489" fill-opacity="1.000000" fill-rule="nonzero"/>
	<path id="Vector" d="M19.8665 24.8936C20.0906 24.8936 20.3057 24.7623 20.4072 24.5386C20.5469 24.2307 20.4175 23.8641 20.1189 23.72L13.8491 20.6959C13.5513 20.5527 13.1958 20.6857 13.0562 20.9935C12.9167 21.3014 13.0459 21.668 13.3445 21.8121L19.6143 24.8362C19.6958 24.8751 19.7817 24.8936 19.8665 24.8936Z" fill="#F79489" fill-opacity="1.000000" fill-rule="nonzero"/>
	<path id="Vector" d="M46.9438 20.9935C46.8037 20.6857 46.4482 20.5527 46.1509 20.6959L39.8811 23.72C39.5823 23.8645 39.4536 24.2307 39.5928 24.5386C39.6941 24.7623 39.9092 24.8936 40.1335 24.8936C40.2183 24.8936 40.3042 24.8751 40.3855 24.8358L46.6555 21.8116C46.9546 21.668 47.0833 21.3014 46.9438 20.9935Z" fill="#F79489" fill-opacity="1.000000" fill-rule="nonzero"/>
	<path id="Vector" d="M30.6221 18.5106C30.9653 18.5106 31.2439 18.2296 31.2439 17.8834L31.2439 10.6272C31.2439 10.2806 30.9653 10 30.6221 10C30.2786 10 30 10.2806 30 10.6272L30 17.8834C30 18.2296 30.2786 18.5106 30.6221 18.5106Z" fill="#F79489" fill-opacity="1.000000" fill-rule="nonzero"/>
</svg>
