<svg width="60.000000" height="60.000000" viewBox="0 0 60 60" fill="none" xmlns="http://www.w3.org/2000/svg" xmlns:xlink="http://www.w3.org/1999/xlink">
	<desc>
			Created with Pixso.
	</desc>
	<defs/>
	<circle id="Ellipse 71" cx="30.000000" cy="30.000000" r="30.000000" fill="#FAF5F2" fill-opacity="1.000000"/>
	<rect id="icon" width="44.000000" height="40.000000" transform="translate(8.000000 10.000000)" fill="#FFFFFF" fill-opacity="0"/>
	<path id="Vector" d="M46.7505 36.2594L40.9019 32.3971C40.5825 32.1861 40.1504 32.2746 39.939 32.5973C39.728 32.9196 39.8176 33.3531 40.1382 33.5645L44.9729 36.7572L24.6985 43.9928L10.238 34.3785L18.5046 31.3553C18.8652 31.2236 19.052 30.8226 18.9199 30.4599C18.7888 30.0976 18.3894 29.9099 18.0293 30.0426L8.45532 33.544C8.10596 33.6716 7.92236 34.0521 8.03125 34.4055L8.03125 38.5565C8.03125 38.638 8.04785 38.7148 8.07349 38.7875C8.07812 39.0087 8.18652 39.2239 8.38403 39.3552L24.2202 49.884C24.3384 49.9623 24.4719 50 24.6035 50C24.7412 50 24.8743 49.9543 24.99 49.8766L46.804 42.0919C47.0605 42.0002 47.2278 41.7715 47.2585 41.5168C47.2969 41.4302 47.3191 41.3347 47.3191 41.2337L47.3191 36.9453C47.3186 36.603 47.0735 36.3195 46.7505 36.2594ZM9.42139 35.511L23.9089 45.143L23.9089 48.0018L9.42139 38.3698L9.42139 35.511ZM25.2991 45.2609L45.929 37.8986L45.929 40.9212L25.2991 48.2835L25.2991 45.2609Z" fill="#F79489" fill-opacity="1.000000" fill-rule="nonzero"/>
	<path id="Vector" d="M52 21.4509C52 21.1024 51.7554 20.8131 51.4324 20.7518L35.7542 10.1155C35.7417 10.1069 35.7278 10.1022 35.7151 10.0946C35.6938 10.0823 35.6731 10.0699 35.6504 10.0599C35.6289 10.0504 35.6077 10.0428 35.5864 10.0357C35.5654 10.0286 35.5452 10.0219 35.5237 10.0172C35.5007 10.012 35.4775 10.0087 35.4539 10.0058C35.4329 10.0034 35.4121 10.0005 35.3909 10.0001C35.3667 9.99963 35.343 10.001 35.3188 10.0029C35.2981 10.0044 35.2773 10.0063 35.2559 10.0096C35.2314 10.0139 35.2073 10.0205 35.1831 10.0276C35.1689 10.0319 35.1545 10.0333 35.1401 10.0381L13.144 17.9732C12.7886 18.1014 12.6003 18.4956 12.7139 18.8608L12.7139 23.0884C12.7139 23.1691 12.7297 23.2455 12.7542 23.3177C12.7576 23.5452 12.8665 23.7675 13.0652 23.9023L28.8982 34.6437C29.0164 34.7234 29.1494 34.7619 29.2815 34.7619C29.4197 34.7619 29.553 34.7154 29.6689 34.6351L51.4824 26.7004C51.7383 26.6074 51.9045 26.3761 51.9365 26.1177C51.9763 26.028 52 25.9288 52 25.8238L52 21.4509ZM35.2754 11.4993L49.6584 21.2571L29.3765 28.6343L14.9348 18.837L35.2754 11.4993ZM14.104 19.9821L28.5869 29.8073L28.5869 32.7231L14.104 22.8979L14.104 19.9821ZM29.9771 29.9274L50.6099 22.4225L50.6099 25.5051L29.9771 33.0105L29.9771 29.9274Z" fill="#F79489" fill-opacity="1.000000" fill-rule="nonzero"/>
</svg>
