<svg width="60.000000" height="60.000000" viewBox="0 0 60 60" fill="none" xmlns="http://www.w3.org/2000/svg" xmlns:xlink="http://www.w3.org/1999/xlink">
	<desc>
			Created with Pixso.
	</desc>
	<defs/>
	<circle id="Ellipse 72" cx="30.000000" cy="30.000000" r="30.000000" fill="#FAF5F2" fill-opacity="1.000000"/>
	<rect id="icon" width="36.266666" height="40.000000" transform="translate(12.000000 10.000000)" fill="#FFFFFF" fill-opacity="0"/>
	<path id="Vector" d="M47.4741 13.5503L43.1584 13.5503L43.1584 12.7803C43.1584 11.2471 41.9192 10 40.3965 10C38.8689 10 37.6262 11.2476 37.6262 12.7803L37.6262 13.5503L32.8931 13.5503L32.8931 12.7803C32.8931 11.2471 31.6521 10 30.1272 10C28.6001 10 27.3577 11.2476 27.3577 12.7803L27.3577 13.5503L22.6245 13.5503L22.6245 12.7803C22.6245 11.2471 21.3835 10 19.8586 10C18.3333 10 17.0923 11.2476 17.0923 12.7803L17.0923 13.5503L12.792 13.5503C12.3542 13.5503 12 13.9069 12 14.3463L12 49.204C12 49.6434 12.3542 50 12.792 50L47.4746 50C47.9124 50 48.2666 49.6434 48.2666 49.204L48.2666 14.3463C48.2661 13.9069 47.9119 13.5503 47.4741 13.5503ZM39.21 12.7803C39.21 12.1254 39.7422 11.592 40.3958 11.592C41.0454 11.592 41.574 12.1254 41.574 12.7803L41.574 16.4897C41.574 17.1451 41.0454 17.6785 40.3958 17.6785C39.7422 17.6785 39.21 17.1451 39.21 16.4897L39.21 12.7803ZM28.9419 12.7803C28.9419 12.1254 29.4736 11.592 30.1272 11.592C30.7788 11.592 31.3091 12.1254 31.3091 12.7803L31.3091 16.4897C31.3091 17.1451 30.7788 17.6785 30.1272 17.6785C29.4736 17.6785 28.9419 17.1451 28.9419 16.4897L28.9419 12.7803ZM18.6765 12.7803C18.6765 12.1254 19.2065 11.592 19.8586 11.592C20.5103 11.592 21.0403 12.1254 21.0403 12.7803L21.0403 16.4897C21.0403 17.1451 20.5103 17.6785 19.8586 17.6785C19.207 17.6785 18.6765 17.1451 18.6765 16.4897L18.6765 12.7803ZM46.6821 48.4074L13.5835 48.4074L13.5835 15.1418L17.0918 15.1418L17.0918 16.4893C17.0918 18.0229 18.3328 19.27 19.8582 19.27C21.3831 19.27 22.624 18.0224 22.624 16.4893L22.624 15.1418L27.3572 15.1418L27.3572 16.4893C27.3572 18.0229 28.5996 19.27 30.1267 19.27C31.6516 19.27 32.8926 18.0224 32.8926 16.4893L32.8926 15.1418L37.6257 15.1418L37.6257 16.4893C37.6257 18.0229 38.8689 19.27 40.3958 19.27C41.9192 19.27 43.158 18.0224 43.158 16.4893L43.158 15.1418L46.6816 15.1418L46.6816 48.4074L46.6821 48.4074Z" fill="#F79489" fill-opacity="1.000000" fill-rule="nonzero"/>
	<path id="Vector" d="M37.8311 26.2658L29.0127 36.3102L24.5376 31.7603C24.2314 31.449 23.7356 31.449 23.4294 31.7603C23.1235 32.0715 23.1235 32.5757 23.4294 32.887L28.4907 38.0334C28.6375 38.1833 28.8372 38.2667 29.0452 38.2667C29.0522 38.2667 29.0596 38.2667 29.0669 38.2661C29.2827 38.2598 29.4861 38.1641 29.6296 38.0005L39.0007 27.3272C39.2893 26.9989 39.261 26.4953 38.9382 26.2021C38.6143 25.9094 38.1201 25.938 37.8311 26.2658Z" fill="#F79489" fill-opacity="1.000000" fill-rule="nonzero"/>
</svg>
