<svg width="24.000000" height="24.000000" viewBox="0 0 24 24" fill="none" xmlns="http://www.w3.org/2000/svg" xmlns:xlink="http://www.w3.org/1999/xlink">
	<desc>
			Created with Pixso.
	</desc>
	<defs/>
	<path id="Vector 9" d="M8 8L8 7C8 4.79086 9.79077 3 12 3C14.2092 3 16 4.79086 16 7L16 8" stroke="#FFFFFF" stroke-opacity="1.000000" stroke-width="2.000000" stroke-linecap="round"/>
	<path id="Subtract" d="M6.95996 7L17.04 7C18.8867 7 19.8101 7 20.3918 7.56375C20.407 7.57831 20.4216 7.59314 20.4363 7.60818C21 8.18988 21 9.11325 21 10.96L21 14.08C21 17.7735 21 19.6202 19.8726 20.7837C19.8433 20.8137 19.8137 20.8434 19.7837 20.8725C18.6201 22 16.7734 22 13.0801 22L10.9199 22C7.22656 22 5.37988 22 4.21631 20.8725C4.18628 20.8434 4.15674 20.8137 4.12744 20.7837C3 19.6202 3 17.7734 3 14.08L3 10.96C3 9.11328 3 8.18991 3.56372 7.60818C3.57837 7.59314 3.59302 7.57831 3.60815 7.56375C4.18994 7 5.11328 7 6.95996 7ZM9 11C8.43994 11 8 11.44 8 12L8 14C8 14.56 8.43994 15 9 15C9.56006 15 10 14.56 10 14L10 12C10 11.44 9.56006 11 9 11ZM15 11C14.4399 11 14 11.44 14 12L14 14C14 14.56 14.4399 15 15 15C15.5601 15 16 14.56 16 14L16 12C16 11.44 15.5601 11 15 11Z" clip-rule="evenodd" fill="#FFFFFF" fill-opacity="1.000000" fill-rule="evenodd"/>
	<circle id="Ellipse 74" cx="20.000000" cy="7.000000" r="4.000000" fill="#F79489" fill-opacity="1.000000"/>
</svg>
