<svg width="119.000000" height="35.000000" viewBox="0 0 119 35" fill="none" xmlns="http://www.w3.org/2000/svg" xmlns:xlink="http://www.w3.org/1999/xlink">
	<desc>
			Created with Pixso.
	</desc>
	<defs>
		<clipPath id="clip39_214">
			<rect id="Asset 1 1" width="119.000000" height="35.000000" fill="white" fill-opacity="0"/>
		</clipPath>
	</defs>
	<rect id="Asset 1 1" width="119.000000" height="35.000000" fill="#FFFFFF" fill-opacity="0"/>
	<g clip-path="url(#clip39_214)">
		<path id="Vector" d="M45.2427 8.46964C47.7948 8.87317 50.0964 9.48785 50.0964 11.8528C50.0964 14.2177 47.5443 15.1093 45.0618 15.1093C43.4237 15.1093 41.3495 14.5274 40.5839 13.2699C40.5088 13.1274 40.4714 12.9678 40.4752 12.8065C40.479 12.6451 40.5239 12.4875 40.6056 12.3488C40.6871 12.2101 40.8029 12.095 40.9413 12.0147C41.0797 11.9344 41.2363 11.8916 41.3959 11.8903L42.9412 11.8903C42.9412 13.725 44.129 14.3257 45.0803 14.3257C46.0315 14.3257 47.2937 13.725 47.2937 11.8903C47.2937 11.1067 46.2311 10.8346 44.8993 10.6328C42.3286 10.2339 40.259 9.45502 40.259 7.34818C40.259 5.12869 43.0432 4.25592 45.006 4.18555C46.4631 4.18555 48.7832 4.80023 49.5024 6.4191C49.5492 6.55896 49.5626 6.70804 49.5417 6.85416C49.5208 7.00027 49.4661 7.13934 49.382 7.26004C49.2979 7.38077 49.1868 7.47968 49.0577 7.5488C48.9287 7.61795 48.7854 7.6553 48.6394 7.65787L47.006 7.65787C47.006 5.58386 45.7439 4.96448 45.0432 4.96448C44.2357 4.96448 43.0479 5.58386 43.0479 7.31064C43.0479 8.07547 44.2543 8.34763 45.2241 8.4931L45.2427 8.46964Z" fill="#FFFFFF" fill-opacity="1.000000" fill-rule="nonzero"/>
		<path id="Vector" d="M59.0615 14.8371C59.5629 14.0149 59.8011 13.0563 59.7437 12.0921L59.7437 9.50662C59.7437 6.79916 59.4559 4.95978 57.7297 4.95978C55.5349 4.95978 54.8528 6.79916 54.8528 9.50662L54.8528 12.0921C54.8311 12.8701 54.9718 13.6439 55.2657 14.3632L55.2657 14.4007C55.3491 14.5647 55.4453 14.7216 55.5535 14.87L55.5906 14.9028L51.2705 14.9028L51.3447 14.8136C51.8461 13.9915 52.0844 13.0328 52.0269 12.0686L52.0269 3.30807C52.0269 1.32324 51.2705 0.492676 51.2705 0.492676L52.5513 0.492676C52.8536 0.490814 53.1533 0.549591 53.4331 0.665619C53.7129 0.781616 53.9672 0.952545 54.1812 1.16855C54.3951 1.38455 54.5647 1.6413 54.6801 1.92398C54.7953 2.20663 54.854 2.50961 54.8528 2.8154L54.8528 5.79971C55.4792 4.8894 56.217 4.18085 57.7112 4.18085C61.3632 4.18085 62.5325 6.63492 62.5325 9.6521L62.5325 12.0921C62.5107 12.8701 62.6515 13.6439 62.9454 14.3632L62.9454 14.4007C63.0288 14.5647 63.125 14.7216 63.2332 14.87L63.2656 14.9075L58.9502 14.9075L59.0244 14.8136L59.0615 14.8371Z" fill="#FFFFFF" fill-opacity="1.000000" fill-rule="nonzero"/>
		<path id="Vector" d="M75.7015 12.308C75.6713 13.2181 75.937 14.1131 76.4579 14.8559L74.5322 14.8559C73.7759 14.8559 72.9127 14.2365 72.9127 13.4716C72.2677 14.382 71.5206 15.0905 70.0358 15.0905C66.3885 15.0905 64.3561 12.6364 64.3561 9.61456C64.3561 6.59271 66.3885 4.14334 70.0358 4.14334C70.6538 4.13892 71.2683 4.23721 71.8547 4.43427C72.5908 4.74878 73.3838 4.90457 74.1827 4.89163C74.9818 4.87872 75.7693 4.69736 76.4951 4.35919C75.9535 5.19254 75.6886 6.17868 75.7386 7.17456L75.7015 12.308ZM70.0172 14.2553C72.212 14.2553 72.8942 11.346 72.8942 9.59579C72.8942 6.9071 72.212 4.92694 70.0172 4.92694C68.291 4.92694 67.1403 6.9071 67.1403 9.61926C67.1403 12.3314 68.291 14.3116 70.0172 14.3116L70.0172 14.2553Z" fill="#FFFFFF" fill-opacity="1.000000" fill-rule="nonzero"/>
		<path id="Vector" d="M89.1259 12.0358C89.1259 14.016 89.8822 14.8512 89.8822 14.8512L88.8567 14.8512C88.3477 14.8546 87.8485 14.7083 87.42 14.43C86.9917 14.1518 86.6525 13.7536 86.4438 13.284C86.011 13.8525 85.4519 14.3101 84.8119 14.6199C84.1719 14.9296 83.4688 15.0828 82.7594 15.067C79.6133 15.067 77.7758 12.6129 77.7758 9.59109C77.7758 6.56924 79.3953 4.12454 82.778 4.12454C83.4531 4.108 84.1234 4.24487 84.7394 4.52505C85.3553 4.80521 85.9014 5.22156 86.337 5.74341L86.337 3.28464C86.337 1.29977 85.5807 0.469238 85.5807 0.469238L86.5876 0.469238C87.8499 0.469238 89.1259 1.50623 89.1259 2.77786L89.1259 12.0358ZM83.4415 14.2553C85.6178 14.2553 86.3185 11.346 86.3185 9.59579C86.3185 6.9071 85.6364 4.92694 83.4415 4.92694C81.7153 4.92694 80.5831 6.9071 80.5831 9.61926C80.5831 12.3314 81.7153 14.3116 83.4415 14.3116L83.4415 14.2553Z" fill="#FFFFFF" fill-opacity="1.000000" fill-rule="nonzero"/>
		<path id="Vector" d="M102.55 4.34509C101.633 5.27386 100.889 6.36282 100.355 7.55933L96.1791 16.9815C95.9854 17.5258 95.6317 17.9972 95.1656 18.3326C94.6996 18.6681 94.1433 18.8515 93.5713 18.8584C92.908 18.8458 92.2678 18.6097 91.7523 18.1874C91.3418 17.7715 91.1044 17.2123 91.0887 16.6249C91.0863 16.468 91.1147 16.3123 91.1724 16.1666C91.23 16.021 91.3158 15.8884 91.4246 15.7766C91.5334 15.6648 91.6632 15.576 91.8063 15.5154C91.9493 15.4548 92.1029 15.4236 92.2581 15.4236L93.8776 15.4236C93.1212 16.1697 93.033 18.042 93.6965 18.042C94.7916 18.042 95.511 16.3668 95.511 16.3668C95.8729 15.5691 95.6038 14.3867 95.2418 13.5843L92.6617 7.74234C92.0995 6.4902 91.3341 5.34195 90.3973 4.34509L94.9819 4.34509C94.9448 4.56046 94.9261 4.77869 94.9263 4.99731C94.9225 5.6449 95.0586 6.28549 95.3253 6.87424L97.5341 11.895L99.8542 6.63965C100.176 5.92798 100.271 5.13226 100.123 4.36386L102.55 4.34509Z" fill="#FFFFFF" fill-opacity="1.000000" fill-rule="nonzero"/>
		<path id="Vector" d="M46.644 19.8532C49.252 19.8532 49.8273 21.2187 49.8273 23.0721C49.8285 23.2237 49.8002 23.3741 49.744 23.5146C49.6877 23.6551 49.6046 23.7831 49.4995 23.8911C49.3944 23.9992 49.2693 24.0852 49.1312 24.1444C48.9932 24.2035 48.845 24.2346 48.6951 24.2358L47.0431 24.2358C47.0431 24.2358 48.4073 20.6697 46.6812 20.6697C44.4863 20.6697 43.8228 22.0351 43.8228 24.7285L43.8228 27.7832C43.8005 28.5612 43.9413 29.3352 44.2357 30.0543L44.2357 30.0919C44.3179 30.2565 44.4142 30.4135 44.5234 30.5611L44.5559 30.5986L40.2405 30.5986L40.3147 30.5048C40.5143 30.2326 40.9968 29.3786 40.9968 27.7598L40.9968 22.9032C41.007 22.1847 40.8857 21.4705 40.6395 20.7964C40.5477 20.5507 40.4261 20.3174 40.2776 20.1019C41.8264 20.7674 43.5725 20.7876 45.136 20.1582C45.6268 19.9586 46.1521 19.8597 46.6812 19.8673L46.644 19.8532Z" fill="#FFFFFF" fill-opacity="1.000000" fill-rule="nonzero"/>
		<path id="Vector" d="M58.5928 30.5658C59.0941 29.7436 59.3324 28.7849 59.2749 27.8207L59.2749 25.2353C59.2749 22.5278 58.9872 20.6884 57.261 20.6884C55.0662 20.6884 54.384 22.5278 54.384 25.2353L54.384 27.8207C54.3623 28.5987 54.5031 29.3726 54.797 30.0918L54.797 30.1294C54.8804 30.2933 54.9766 30.4502 55.0847 30.5986L55.1218 30.6314L50.8064 30.6314L50.876 30.5423C51.0756 30.2701 51.5581 29.4161 51.5581 27.7973L51.5581 19.0367C51.5581 17.0519 50.8064 16.2213 50.8064 16.2213L52.0825 16.2213C52.6876 16.2226 53.2676 16.4662 53.6954 16.8989C54.1233 17.3316 54.3643 17.9181 54.3655 18.53L54.3655 21.5143C54.9966 20.604 55.7297 19.8954 57.2239 19.8954C60.8759 19.8954 62.0452 22.3495 62.0452 25.3714L62.0452 27.8067C62.0234 28.5847 62.1642 29.3585 62.4581 30.0778L62.4581 30.1153C62.5415 30.2792 62.6377 30.4362 62.7458 30.5845L62.783 30.6221L58.4629 30.6221L58.5371 30.5282L58.5928 30.5658Z" fill="#FFFFFF" fill-opacity="1.000000" fill-rule="nonzero"/>
		<path id="Vector" d="M74.3002 20.0738C73.3817 21.0033 72.6379 22.094 72.1053 23.2927L67.9291 32.7102C67.7382 33.2563 67.3853 33.7296 66.9186 34.0655C66.4519 34.4014 65.8942 34.5835 65.3213 34.5871C64.658 34.5745 64.0178 34.3383 63.5023 33.9161C63.0909 33.5007 62.8534 32.9412 62.8387 32.3535C62.8363 32.1967 62.8647 32.0409 62.9224 31.8953C62.98 31.7496 63.0658 31.6171 63.1746 31.5052C63.2834 31.3935 63.4132 31.3047 63.5563 31.2441C63.6993 31.1835 63.8529 31.1523 64.0081 31.1523L65.6276 31.1523C64.8712 31.8984 64.783 33.7706 65.4465 33.7706C66.5416 33.7706 67.2609 32.1002 67.2609 32.1002C67.6228 31.2978 67.3538 30.1153 66.9918 29.3176L64.4257 23.4616C63.8634 22.2095 63.098 21.0612 62.1613 20.0644L66.7458 20.0644C66.7089 20.2798 66.6903 20.498 66.6902 20.7166C66.6858 21.3642 66.822 22.0049 67.0892 22.5935L69.298 27.6143L71.6182 22.3589C71.9403 21.6472 72.0344 20.8515 71.8873 20.0831L74.3002 20.0738Z" fill="#FFFFFF" fill-opacity="1.000000" fill-rule="nonzero"/>
		<path id="Vector" d="M89.0516 30.6033C89.5555 29.7803 89.7954 28.8199 89.7384 27.8536L89.7384 24.8177C89.7384 22.129 89.2744 20.7635 88.1375 20.7635C86.2814 20.7635 85.5807 22.0164 85.5297 24.5643L85.5297 27.8489C85.5076 28.6284 85.6483 29.4039 85.9426 30.1247L85.9426 30.1622C86.0242 30.3272 86.1205 30.4843 86.2303 30.6315L86.2628 30.669L81.9891 30.669L82.0634 30.5799C82.5647 29.7577 82.803 28.799 82.7455 27.8348L82.7455 24.7661C82.7455 22.0727 82.2583 20.7072 81.1447 20.7072C79.2374 20.7072 78.5182 22.0727 78.5182 24.7661L78.5182 27.8208C78.4993 28.5985 78.6399 29.3718 78.9312 30.0919L78.9312 30.1294C79.0164 30.2922 79.1125 30.449 79.2189 30.5986L79.256 30.6315L74.9406 30.6315L75.0101 30.5423C75.2097 30.2702 75.6969 29.4162 75.6969 27.7973L75.6969 22.9408C75.7058 22.2219 75.5831 21.5076 75.335 20.8339C75.2428 20.5892 75.1229 20.3562 74.9777 20.1394C75.6998 20.4687 76.4813 20.6437 77.2734 20.6534C78.0656 20.6631 78.8511 20.5073 79.5808 20.1957C80.1591 19.9975 80.7661 19.8992 81.3766 19.9048C82.0416 19.8786 82.6996 20.0505 83.2688 20.3992C83.838 20.748 84.2935 21.2581 84.5784 21.8662C84.9536 21.268 85.4714 20.7748 86.0845 20.4321C86.6975 20.0893 87.386 19.908 88.0864 19.9048C91.2325 19.9048 92.5643 22.3589 92.5643 25.3808L92.5643 27.8161C92.5426 28.5941 92.6833 29.3679 92.9773 30.0872L92.9773 30.1247C93.0607 30.2886 93.1569 30.4456 93.265 30.5939L93.3021 30.6315L88.9867 30.6315L89.0563 30.5376L89.0516 30.6033Z" fill="#FFFFFF" fill-opacity="1.000000" fill-rule="nonzero"/>
		<path id="Vector" d="M101.13 29.8385C103.863 29.8385 105.733 27.2389 105.733 27.2389C104.996 29.1815 102.819 30.8192 100.165 30.8192C96.6013 30.8192 94.374 28.3275 94.374 25.3104C94.374 22.2932 96.6013 19.872 100.165 19.872C102.986 19.872 105.2 21.3829 105.826 23.8557C105.891 24.097 105.899 24.3502 105.851 24.5953C105.802 24.8404 105.698 25.0708 105.546 25.2682C105.395 25.4657 105.2 25.6248 104.977 25.7331C104.754 25.8414 104.51 25.8958 104.262 25.8922L97.3345 25.8922C97.7476 27.8536 98.9354 29.8385 101.149 29.8385L101.13 29.8385ZM99.2046 20.7823C97.3484 21.2891 97.0469 23.3115 97.1721 25.0757L102.495 25.0757C102.586 25.0696 102.675 25.0444 102.756 25.0019C102.837 24.9594 102.908 24.9004 102.966 24.8286C103.023 24.7567 103.066 24.6737 103.09 24.5846C103.114 24.4955 103.12 24.4024 103.107 24.3109C102.782 22.2369 101.33 20.2004 99.2231 20.7823L99.2046 20.7823Z" fill="#FFFFFF" fill-opacity="1.000000" fill-rule="nonzero"/>
		<path id="Vector" d="M112.151 24.1983C114.708 24.6018 117.009 25.2165 117.009 27.5815C117.009 29.9464 114.452 30.8379 111.97 30.8379C110.337 30.8379 108.258 30.2561 107.492 29.0032C107.41 28.8599 107.367 28.6973 107.368 28.5319C107.368 28.3664 107.412 28.204 107.494 28.0611C107.577 27.9182 107.695 27.7998 107.837 27.7181C107.979 27.6363 108.14 27.594 108.304 27.5955L109.831 27.5955C109.831 29.4302 111.019 30.0309 111.97 30.0309C112.921 30.0309 114.183 29.4302 114.183 27.5955C114.183 26.8119 113.121 26.5398 111.794 26.3427C109.218 25.9391 107.153 25.1602 107.153 23.0299C107.153 20.8151 109.938 19.9377 111.9 19.8673C113.357 19.8673 115.677 20.4867 116.397 22.1055C116.443 22.2451 116.455 22.3937 116.434 22.5392C116.413 22.6847 116.358 22.8231 116.274 22.9432C116.19 23.0633 116.079 23.1617 115.95 23.2306C115.822 23.2995 115.679 23.3368 115.534 23.3396L113.896 23.3396C113.896 21.2656 112.638 20.6462 111.933 20.6462C111.125 20.6462 109.938 21.2656 109.938 22.9924C109.938 23.7572 111.144 24.0294 112.114 24.1748L112.151 24.1983Z" fill="#FFFFFF" fill-opacity="1.000000" fill-rule="nonzero"/>
		<path id="Vector" d="M13.2756 19.7585L8.21997 24.8156L9.19043 25.7785L14.2773 20.6901C14.751 20.9987 15.2843 21.2042 15.8427 21.2928L15.8427 31L17.2043 31L17.2043 21.2928C17.7843 21.1934 18.3364 20.9719 18.8243 20.6431L23.8252 25.6454L24.7957 24.6825L19.8026 19.688C20.1792 19.1765 20.431 18.5841 20.5382 17.9579L30 17.9579L30 16.5958L20.5148 16.5958C20.4261 16.0374 20.2208 15.5039 19.9122 15.0302L24.6078 10.3331L23.6453 9.37024L18.9496 14.0673C18.4241 13.6605 17.8053 13.3914 17.1495 13.2844L17.1495 4L15.8191 4L15.8191 13.261C15.1932 13.3682 14.601 13.6201 14.0896 13.9968L9.32349 9.22934L8.35303 10.1844L13.1348 14.9675C12.8027 15.4539 12.5811 16.0069 12.4852 16.588L3 16.588L3 17.9501L12.4852 17.9501C12.5933 18.6096 12.865 19.2314 13.2756 19.7585ZM16.5 14.5605C17.0361 14.5651 17.5588 14.7283 18.0023 15.0296C18.4458 15.3309 18.7902 15.7568 18.9922 16.2535C19.1941 16.7503 19.2445 17.2957 19.1371 17.8211C19.0297 18.3465 18.7692 18.8283 18.3885 19.2058C18.0078 19.5834 17.5239 19.8398 16.9978 19.9427C16.4716 20.0457 15.9268 19.9905 15.4319 19.7842C14.9371 19.578 14.5143 19.2298 14.2169 18.7836C13.9196 18.3374 13.7609 17.8131 13.7609 17.2769C13.7609 16.9182 13.8319 16.563 13.9698 16.2319C14.1078 15.9008 14.3099 15.6003 14.5646 15.3477C14.8192 15.0952 15.1213 14.8956 15.4536 14.7604C15.7858 14.6253 16.1414 14.5573 16.5 14.5605Z" fill="#FADCD9" fill-opacity="1.000000" fill-rule="nonzero"/>
		<path id="Vector" d="M8.21997 24.8156L9.19043 25.7785L14.2773 20.6901C14.751 20.9987 15.2843 21.2042 15.8427 21.2928L15.8427 31L17.2043 31L17.2043 21.2928C17.7843 21.1934 18.3364 20.9719 18.8243 20.6431L23.8252 25.6454L24.7957 24.6825L19.8026 19.688C20.1792 19.1765 20.431 18.5841 20.5382 17.9579L30 17.9579L30 16.5958L20.5148 16.5958C20.4261 16.0374 20.2208 15.5039 19.9122 15.0302L24.6078 10.3331L23.6453 9.37024L18.9496 14.0673C18.4241 13.6605 17.8053 13.3914 17.1495 13.2844L17.1495 4L15.8191 4L15.8191 13.261C15.1932 13.3682 14.601 13.6201 14.0896 13.9968L9.32349 9.22934L8.35303 10.1844L13.1348 14.9675C12.8027 15.4539 12.5811 16.0069 12.4852 16.588L3 16.588L3 17.9501L12.4852 17.9501C12.5933 18.6096 12.865 19.2314 13.2756 19.7585L8.21997 24.8156ZM18.0023 15.0296C18.4458 15.3309 18.7902 15.7568 18.9922 16.2535C19.1941 16.7503 19.2445 17.2957 19.1371 17.8211C19.0297 18.3465 18.7692 18.8283 18.3885 19.2058C18.0078 19.5834 17.5239 19.8398 16.9978 19.9427C16.4716 20.0457 15.9268 19.9905 15.4319 19.7842C14.9371 19.578 14.5143 19.2298 14.2169 18.7836C13.9196 18.3374 13.7609 17.8131 13.7609 17.2769C13.7609 16.9182 13.8319 16.563 13.9698 16.2319C14.1078 15.9008 14.3099 15.6003 14.5646 15.3477C14.8192 15.0952 15.1213 14.8956 15.4536 14.7604C15.7858 14.6253 16.1414 14.5573 16.5 14.5605C17.0361 14.5651 17.5588 14.7283 18.0023 15.0296Z" stroke="#FADCD9" stroke-opacity="1.000000" stroke-width="1.000000"/>
	</g>
</svg>
